<svg width="28" height="26" viewBox="0 0 28 26" fill="none" xmlns="http://www.w3.org/2000/svg">
<path d="M27.0903 22C27.0903 24.209 25.7426 26 24.0803 26H3.01003C1.34774 26 0 24.209 0 22V4C0 1.791 1.34774 0 3.01003 0H24.0803C25.7426 0 27.0903 1.791 27.0903 4V22Z" fill="#CCD6DD"/>
<path d="M8.99248 12.636L0.479355 23.949C0.459037 23.977 0.451512 24.012 0.434204 24.04C0.690057 24.61 1.04675 25.083 1.47568 25.424C1.4975 25.401 1.52308 25.391 1.5434 25.364L10.0573 14.05C10.3508 13.659 10.3508 13.027 10.0573 12.636C9.7623 12.245 9.28671 12.245 8.99248 12.636ZM26.6561 24.04C26.6403 24.012 26.6313 23.977 26.611 23.95L18.0986 12.636C17.8036 12.245 17.328 12.245 17.0338 12.636C16.7396 13.028 16.7396 13.66 17.0338 14.05L25.5469 25.364C25.5665 25.39 25.5936 25.401 25.6146 25.424C26.0443 25.084 26.4003 24.61 26.6561 24.04Z" fill="#99AAB5"/>
<path d="M24.0803 0H3.01003C1.34774 0 0 1.791 0 4V5.03L10.9324 19.526C12.3577 21.419 14.686 21.419 16.1127 19.526L27.0903 5.009V4C27.0903 1.791 25.7426 0 24.0803 0Z" fill="#99AAB5"/>
<path d="M24.0803 0H3.01008C1.81509 0 0.79093 0.934 0.30481 2.275L11.4163 17.042C12.5918 18.604 14.4986 18.604 15.6733 17.042L26.7856 2.275C26.2995 0.934 25.276 0 24.0803 0Z" fill="#E1E8ED"/>
</svg>
