<svg width="42" height="42" viewBox="0 0 42 42" fill="none" xmlns="http://www.w3.org/2000/svg">
<circle cx="21" cy="21" r="18" stroke="#C4C5C5" stroke-width="4"/>
<path d="M20.7777 1.00124C24.5439 0.959462 28.2453 1.982 31.456 3.95117C34.6667 5.92034 37.256 8.75609 38.9261 12.132C40.5961 15.508 41.2789 19.2869 40.8959 23.0338C40.5129 26.7807 39.0797 30.3433 36.7612 33.3115C34.4426 36.2797 31.3331 38.533 27.7904 39.8118C24.2478 41.0907 20.416 41.3432 16.7361 40.5403C13.0563 39.7374 9.67795 37.9118 6.98996 35.2734C4.30197 32.6351 2.4136 29.2914 1.5422 25.6272L5.41829 24.7054C6.11609 27.6397 7.62828 30.3173 9.7808 32.4301C11.9333 34.5428 14.6387 36.0048 17.5855 36.6477C20.5323 37.2907 23.6007 37.0884 26.4376 36.0643C29.2746 35.0402 31.7647 33.2359 33.6213 30.8589C35.4779 28.482 36.6257 25.6291 36.9324 22.6286C37.2391 19.6281 36.6923 16.602 35.3549 13.8986C34.0176 11.1952 31.9441 8.92434 29.373 7.34745C26.8019 5.77056 23.8378 4.95172 20.8219 4.98518L20.7777 1.00124Z" fill="#5453E0"/>
</svg>
