<svg width="30" height="30" viewBox="0 0 30 30" fill="none" xmlns="http://www.w3.org/2000/svg">
<path d="M30 8.03571C30 4.78071 27.5 0 15 0C2.5 0 0 4.78071 0 8.03571C0 8.08393 0.0158333 8.11714 0.0183333 8.16321C0.00833333 8.37321 0 8.59393 0 8.83928C0 11.6496 1.86583 12.8571 4.16667 12.8571C6.4675 12.8571 8.33333 11.6496 8.33333 8.83928C8.33333 8.60571 8.31583 8.39786 8.29083 8.19964C10.3117 7.82357 12.585 7.5 15 7.5C17.415 7.5 19.6883 7.82357 21.7092 8.19964C21.6842 8.39786 21.6667 8.60571 21.6667 8.83928C21.6667 11.6496 23.5317 12.8571 25.8333 12.8571C28.135 12.8571 30 11.6496 30 8.83928C30 8.59821 29.9925 8.37964 29.98 8.17393C29.9833 8.12464 30 8.08821 30 8.03571Z" fill="#BE1931"/>
<path d="M29.1117 20.3571C28.71 19.2525 27.1867 15.8679 25.805 12.8496C24.5067 10.0136 22.5 7.49999 20.8333 7.49999V5.35714C20.8333 4.17428 20.0867 3.21428 19.1667 3.21428C18.2467 3.21428 17.5 4.17428 17.5 5.35714V7.49999H12.5V5.35714C12.5 4.17428 11.7533 3.21428 10.8333 3.21428C9.91333 3.21428 9.16667 4.17428 9.16667 5.35714V7.49999C7.5 7.49999 5.49167 10.0189 4.19167 12.8571C2.81083 15.8732 1.28917 19.2536 0.888333 20.3571C0.406667 21.6846 0 22.5 0 24.6428C0 26.7857 1.4925 30 3.33333 30H26.6667C28.5075 30 30 26.7857 30 24.6428C30 22.5 29.6267 21.7757 29.1117 20.3571Z" fill="#DD2E44"/>
<path d="M16.7049 11.5907C16.7049 12.075 15.9416 12.4671 14.9999 12.4671C14.0583 12.4671 13.2958 12.075 13.2958 11.5907C13.2958 11.1064 14.0583 10.7143 14.9999 10.7143C15.9416 10.7143 16.7049 11.1064 16.7049 11.5907ZM12.6133 11.5907C12.6133 12.075 11.8508 12.4671 10.9091 12.4671C9.96743 12.4671 9.20493 12.075 9.20493 11.5907C9.20493 11.1064 9.96826 10.7143 10.9091 10.7143C11.8499 10.7143 12.6133 11.1064 12.6133 11.5907ZM20.7949 11.5907C20.7949 12.075 20.0324 12.4671 19.0908 12.4671C18.1491 12.4671 17.3858 12.075 17.3858 11.5907C17.3858 11.1064 18.1491 10.7143 19.0908 10.7143C20.0324 10.7143 20.7949 11.1064 20.7949 11.5907ZM17.0449 14.6593C17.0449 15.3868 16.1291 15.975 14.9999 15.975C13.8708 15.975 12.9541 15.3868 12.9541 14.6593C12.9541 13.9339 13.8699 13.3446 14.9999 13.3446C16.1299 13.3446 17.0449 13.9328 17.0449 14.6593ZM21.8183 14.6593C21.8183 15.3868 20.9016 15.975 19.7733 15.975C18.6441 15.975 17.7274 15.3868 17.7274 14.6593C17.7274 13.9339 18.6441 13.3446 19.7733 13.3446C20.9016 13.3446 21.8183 13.9328 21.8183 14.6593ZM12.2724 14.6593C12.2724 15.3868 11.3566 15.975 10.2274 15.975C9.09826 15.975 8.1816 15.3868 8.1816 14.6593C8.1816 13.9339 9.09743 13.3446 10.2274 13.3446C11.3566 13.3446 12.2724 13.9328 12.2724 14.6593ZM17.7266 18.6032C17.7266 19.5739 16.5058 20.3571 14.9999 20.3571C13.4941 20.3571 12.2724 19.5739 12.2724 18.6032C12.2724 17.6357 13.4941 16.8503 14.9999 16.8503C16.5058 16.8514 17.7266 17.6357 17.7266 18.6032ZM23.8641 18.6032C23.8641 19.5729 22.6416 20.3571 21.1366 20.3571C19.6308 20.3571 18.4091 19.5739 18.4091 18.6032C18.4091 17.6357 19.6308 16.8503 21.1366 16.8503C22.6416 16.8514 23.8641 17.6357 23.8641 18.6032ZM11.5908 18.6032C11.5908 19.5729 10.3691 20.3571 8.86326 20.3571C7.35743 20.3571 6.1366 19.5739 6.1366 18.6032C6.1366 17.6357 7.35743 16.8503 8.86326 16.8503C10.3691 16.8514 11.5908 17.6357 11.5908 18.6032Z" fill="white"/>
</svg>
